<svg id="Layer_1" data-name="Layer 1" xmlns="http://www.w3.org/2000/svg" viewBox="0 0 216 216"><defs><style>.cls-1{fill:#e94b35;}.cls-2{fill:#2a3e50;}</style></defs><title>asset</title><polygon class="cls-1" points="64.74 68.74 17.5 81 17.5 21.5 77 21.5 64.74 68.74"/><polygon class="cls-1" points="191 81 143.76 68.74 131.5 21.5 191 21.5 191 81"/><polygon class="cls-1" points="191 195 131.5 195 143.76 147.76 191 135.5 191 195"/><polygon class="cls-1" points="17.5 195 17.5 135.5 64.74 147.76 77 195 17.5 195"/><polygon class="cls-2" points="95.14 96.94 81.6 83.41 89.12 80.32 70.35 75.57 75.1 94.34 78.19 86.82 91.72 100.36 95.14 96.94"/><polygon class="cls-2" points="91.72 116.46 78.19 130 75.1 122.48 70.35 141.25 89.12 136.5 81.6 133.41 95.14 119.88 91.72 116.46"/><polygon class="cls-2" points="111.66 119.36 125.2 132.89 117.68 135.98 136.45 140.73 131.7 121.96 128.61 129.48 115.08 115.94 111.66 119.36"/><polygon class="cls-2" points="115.08 99.83 128.61 86.3 131.7 93.81 136.45 75.05 117.68 79.8 125.2 82.88 111.66 96.42 115.08 99.83"/></svg>